<svg width="291" height="135" viewBox="0 0 291 135" fill="none" xmlns="http://www.w3.org/2000/svg">
<path d="M2.44604 57.5342C19.396 44.8217 36.1351 32.2103 53.4125 19.8862C59.9185 15.2453 66.2498 9.61387 73.3376 5.83368C74.0072 5.47656 73.5 6.03329 73.2327 6.56776" stroke="black" stroke-width="3" stroke-linecap="round"/>
<path d="M42.0866 31.1072C22.9635 45.6771 49.9547 63.198 45.2326 79.5567C43.0442 87.1382 29.5239 90.4996 23.0004 91.8264C20.7253 92.2892 16.1026 90.3465 19.4348 88.6804" stroke="black" stroke-width="3" stroke-linecap="round"/>
<path d="M52.4686 72.6353C48.5851 73.9298 46.6481 84.8203 48.169 87.6316C53.1794 96.8933 63.2534 78.3727 63.5847 74.3132C63.9419 69.9386 62.2683 63.8194 57.6072 62.1484C54.1039 60.8925 53.4041 65.9449 53.6222 68.126C54.728 79.1842 61.7145 84.7171 72.2889 82.0736" stroke="black" stroke-width="3" stroke-linecap="round"/>
<path d="M87.39 68.86C86.464 67.4132 85.978 64.9406 84.8731 63.7214C80.56 58.962 75.5621 65.0262 73.8619 68.9124C71.8601 73.488 72.3079 79.142 77.1128 81.8114C82.0199 84.5375 84.7709 81.0567 89.0679 79.8713C90.5231 79.4698 92.0459 83.6121 93.2627 84.2758C96.9926 86.3103 101.985 80.124 103.173 77.302C107.672 66.6153 89.2777 63.8947 89.2777 75.4668" stroke="black" stroke-width="3" stroke-linecap="round"/>
<path d="M105.323 73.579C108.306 81.3345 106.918 92.4252 104.903 100.425C104.266 102.957 103.261 109.356 100.813 111.017C99.3639 112.001 98.9026 101.195 98.9256 100.793C99.617 88.6931 106.55 76.8767 114.656 68.2307C115.832 66.9766 121.613 60.1438 123.937 60.6801C124.42 60.7916 114.784 72.6154 113.712 73.8936C110.378 77.8711 117.784 76.573 120.634 77.3543C124.578 78.4358 126.984 81.2907 130.386 77.6164C134.199 73.4987 137.802 64.9564 130.124 62.5677C122.946 60.3344 119.33 65.579 121.368 71.6913" stroke="black" stroke-width="3" stroke-linecap="round"/>
<path d="M157.233 5.62389C157.026 17.6112 155.115 29.502 153.667 41.3843C152.676 49.5271 151.674 57.6701 150.731 65.8188C150.372 68.9203 149.22 73.7617 149.892 77.0398C151.255 83.6817 153.487 63.8768 153.982 57.1147C154.992 43.3122 154.685 29.3183 155.136 15.4816C155.197 13.6005 154.955 1.30799 153.458 10.0284C151.967 18.7118 152.137 28.4463 154.821 36.8749C156.852 43.2536 159.612 46.6126 164.784 40.8599C172.415 32.3708 178.145 20.672 182.454 10.1857C182.665 9.67181 186.061 -1.87816 183.031 3.31677C177.316 13.1139 175.543 26.0266 172.334 36.77C169.102 47.5903 164.888 59.234 164.888 70.6952C164.888 72.3779 166.398 73.594 167.405 71.6915C167.837 70.8754 167.318 69.8728 168.559 69.8038C169.026 69.7779 171.183 69.4737 170.447 70.0136C164.121 74.6526 170.958 87.112 178.521 83.5941C190.749 77.9067 194.225 58.9121 180.829 52.7102C170.561 47.9568 162.039 65.4128 171.495 66.8675C182.337 68.5354 187.203 57.4107 195.668 53.6015C196.476 53.2376 193.034 86.972 189.533 86.5829C188.248 86.4402 193.181 67.2396 193.727 65.8188C196.821 57.7757 202.533 50.333 210.611 46.8375C216.468 44.3032 216.65 47.9649 212.709 51.4517C208.12 55.5109 201.415 57.8731 195.668 59.7888C189.711 61.7745 200.358 71.0442 202.432 73.5791C204.726 76.3833 206.521 83.1236 208.199 76.4106" stroke="black" stroke-width="3" stroke-linecap="round"/>
<path d="M217.638 59.4216C217.723 59.3216 222.883 53.0558 222.147 54.3879C220.61 57.1689 219.029 59.9281 217.428 62.6726C214.296 68.0415 203.377 80.7166 205.263 87.3168C207.041 93.5389 230.753 85.4545 228.963 78.2981" stroke="black" stroke-width="3" stroke-linecap="round"/>
<path d="M216.694 68.86C222.831 68.86 226.016 66.9578 230.851 63.197" stroke="black" stroke-width="3" stroke-linecap="round"/>
<path d="M224.244 58.4778C222.694 58.4778 232.056 56.802 234.259 56.1183C247.293 52.0735 243.515 62.9224 239.555 70.5378C237.003 75.4453 233.959 80.1719 231.69 85.2195C229.353 90.4184 232.019 88.5752 233.63 85.2719C237.446 77.4496 239.895 68.234 241.548 59.7363C242.707 53.7752 238.071 60.5966 237.668 63.1969C237.312 65.4893 237.066 80.625 241.233 74.8374C246.659 67.3017 250.646 59.5292 258.012 53.4441C262.4 49.8199 262.232 51.2212 260.005 55.4366C256.289 62.4706 252.875 69.666 249.203 76.7251C246.442 82.0337 243.773 87.4157 240.709 92.5603C239.266 94.9827 238.568 96.6814 238.349 93.1895C237.74 83.4338 232.267 73.7818 226.656 66.0284C222.203 59.8734 212.209 56.6628 223.825 53.7587C242.736 49.0309 265.377 46.3533 284.806 48.6201C292.846 49.5581 278.241 50.6552 275.63 52.2905C267.613 57.3132 285.723 65.9048 287.952 70.9573C297.223 91.9711 254.524 105.148 242.282 109.025C212.443 118.475 181.573 124.215 151.57 133.04" stroke="black" stroke-width="3" stroke-linecap="round"/>
</svg>
